<svg xmlns="http://www.w3.org/2000/svg" width="1440" height="900" viewBox="0 0 1440 900" role="img">
  <title>Gama - dashboard</title>
  <desc>Indicadores e gráficos do sistema Gama Dados fictícios, sem informação real de pacientes, profissionais ou instituição.</desc>
  <defs>
    <filter id="shadow" x="-15%" y="-15%" width="130%" height="130%"><feDropShadow dx="0" dy="18" stdDeviation="18" flood-color="#0f172a" flood-opacity=".13"/></filter>
    <style>.ui{font-family:Inter,Segoe UI,Arial,sans-serif;letter-spacing:0}</style>
  </defs>
  <rect width="1440" height="900" fill="#f6f8fc"/>
  <rect x="34" y="28" width="1372" height="824" rx="26" fill="#ffffff" filter="url(#shadow)"/>
  <rect x="34" y="28" width="1372" height="48" rx="26" fill="#f8fafc"/>
  <circle cx="72" cy="52" r="7" fill="#ef4444"/><circle cx="96" cy="52" r="7" fill="#f59e0b"/><circle cx="120" cy="52" r="7" fill="#22c55e"/>
  <rect x="174" y="42" width="412" height="20" rx="10" fill="#e2e8f0"/>
  <text x="80" y="120" class="ui" font-size="28" font-weight="850" fill="#101b2c">Dashboard executivo</text><text x="80" y="147" class="ui" font-size="13" font-weight="600" fill="#65758b">Indicadores estratégicos e tendências</text><rect x="80" y="162" width="56" height="4" rx="3" fill="#2563eb" stroke="#2563eb"/><rect x="80" y="210" width="250" height="98" rx="14" fill="#eff6ff" stroke="#eff6ff"/><text x="98" y="240" class="ui" font-size="12" font-weight="800" fill="#1d4ed8">Ocupação</text><text x="98" y="278" class="ui" font-size="30" font-weight="850" fill="#1d4ed8">74%</text><text x="312" y="278" class="ui" font-size="11" font-weight="700" fill="#1d4ed8" text-anchor="end">hoje</text><rect x="360" y="210" width="250" height="98" rx="14" fill="#ecfdf5" stroke="#ecfdf5"/><text x="378" y="240" class="ui" font-size="12" font-weight="800" fill="#16a34a">Agendas</text><text x="378" y="278" class="ui" font-size="30" font-weight="850" fill="#16a34a">42</text><text x="592" y="278" class="ui" font-size="11" font-weight="700" fill="#16a34a" text-anchor="end">turno</text><rect x="640" y="210" width="250" height="98" rx="14" fill="#fff7ed" stroke="#fff7ed"/><text x="658" y="240" class="ui" font-size="12" font-weight="800" fill="#d97706">Conflitos</text><text x="658" y="278" class="ui" font-size="30" font-weight="850" fill="#d97706">03</text><text x="872" y="278" class="ui" font-size="11" font-weight="700" fill="#d97706" text-anchor="end">alerta</text><rect x="920" y="210" width="250" height="98" rx="14" fill="#fef2f2" stroke="#fef2f2"/><text x="938" y="240" class="ui" font-size="12" font-weight="800" fill="#dc2626">Atrasos</text><text x="938" y="278" class="ui" font-size="30" font-weight="850" fill="#dc2626">08</text><text x="1152" y="278" class="ui" font-size="11" font-weight="700" fill="#dc2626" text-anchor="end">médicos</text><rect x="80" y="350" width="560" height="220" rx="12" fill="#ffffff" stroke="#dce5ef"/><text x="98" y="380" class="ui" font-size="15" font-weight="800" fill="#142033">Tendência de ocupação</text><line x1="102" y1="536" x2="618" y2="536" stroke="#d6dfeb" stroke-width="1" stroke-linecap="round"/><polyline points="110,536 193,505 276,489 360,510 443,446 526,425 610,398" fill="none" stroke="#2563eb" stroke-width="5" stroke-linecap="round" stroke-linejoin="round"/><circle cx="443" cy="446" r="6" fill="#2563eb" stroke="none" stroke-width="1"/><circle cx="526" cy="425" r="6" fill="#2563eb" stroke="none" stroke-width="1"/><circle cx="610" cy="398" r="6" fill="#2563eb" stroke="none" stroke-width="1"/><rect x="678" y="350" width="560" height="220" rx="12" fill="#ffffff" stroke="#dce5ef"/><text x="696" y="380" class="ui" font-size="15" font-weight="800" fill="#142033">Agendamentos por turno</text><rect x="708" y="465" width="82" height="71" rx="5" fill="#0ea5e9" stroke="#0ea5e9" opacity="0.52"/><text x="749" y="556" class="ui" font-size="10" font-weight="700" fill="#738196" text-anchor="middle">M</text><rect x="808" y="426" width="82" height="110" rx="5" fill="#0ea5e9" stroke="#0ea5e9" opacity="0.59"/><text x="849" y="556" class="ui" font-size="10" font-weight="700" fill="#738196" text-anchor="middle">T</text><rect x="908" y="481" width="82" height="55" rx="5" fill="#0ea5e9" stroke="#0ea5e9" opacity="0.66"/><text x="949" y="556" class="ui" font-size="10" font-weight="700" fill="#738196" text-anchor="middle">N</text><rect x="1008" y="394" width="82" height="142" rx="5" fill="#0ea5e9" stroke="#0ea5e9" opacity="0.73"/><text x="1049" y="556" class="ui" font-size="10" font-weight="700" fill="#738196" text-anchor="middle">Fim</text><rect x="1108" y="450" width="82" height="86" rx="5" fill="#0ea5e9" stroke="#0ea5e9" opacity="0.8"/><text x="1149" y="556" class="ui" font-size="10" font-weight="700" fill="#738196" text-anchor="middle">Extra</text><line x1="702" y1="536" x2="1214" y2="536" stroke="#d6dfeb" stroke-width="1" stroke-linecap="round"/><rect x="80" y="610" width="1158" height="188" rx="12" fill="#ffffff" stroke="#dce5ef"/><text x="98" y="640" class="ui" font-size="16" font-weight="800" fill="#142033">Sala-mês</text><rect x="96" y="654" width="1126" height="34" rx="8" fill="#f2f6fa" stroke="#f2f6fa"/><text x="108" y="676" class="ui" font-size="11" font-weight="800" fill="#617187">Sala</text><text x="384" y="676" class="ui" font-size="11" font-weight="800" fill="#617187">Mês</text><text x="660" y="676" class="ui" font-size="11" font-weight="800" fill="#617187">Ocupação</text><text x="936" y="676" class="ui" font-size="11" font-weight="800" fill="#617187">Status</text><line x1="98" y1="690" x2="1220" y2="690" stroke="#e7edf4" stroke-width="1" stroke-linecap="round"/><text x="108" y="712" class="ui" font-size="12" font-weight="600" fill="#2b3b4f">Sala 01</text><text x="384" y="712" class="ui" font-size="12" font-weight="600" fill="#2b3b4f">Junho</text><text x="660" y="712" class="ui" font-size="12" font-weight="600" fill="#2b3b4f">81%</text><rect x="936" y="692" width="112" height="26" rx="13" fill="#e6f7ef" stroke="#e6f7ef"/><text x="992" y="710" class="ui" font-size="12" font-weight="800" fill="#13704c" text-anchor="middle">OK</text><line x1="98" y1="732" x2="1220" y2="732" stroke="#e7edf4" stroke-width="1" stroke-linecap="round"/><text x="108" y="754" class="ui" font-size="12" font-weight="600" fill="#2b3b4f">Sala 02</text><text x="384" y="754" class="ui" font-size="12" font-weight="600" fill="#2b3b4f">Junho</text><text x="660" y="754" class="ui" font-size="12" font-weight="600" fill="#2b3b4f">76%</text><rect x="936" y="734" width="112" height="26" rx="13" fill="#e6f7ef" stroke="#e6f7ef"/><text x="992" y="752" class="ui" font-size="12" font-weight="800" fill="#13704c" text-anchor="middle">OK</text><line x1="98" y1="774" x2="1220" y2="774" stroke="#e7edf4" stroke-width="1" stroke-linecap="round"/><text x="108" y="796" class="ui" font-size="12" font-weight="600" fill="#2b3b4f">Sala 04</text><text x="384" y="796" class="ui" font-size="12" font-weight="600" fill="#2b3b4f">Junho</text><text x="660" y="796" class="ui" font-size="12" font-weight="600" fill="#2b3b4f">64%</text><rect x="936" y="776" width="112" height="26" rx="13" fill="#fff6df" stroke="#fff6df"/><text x="992" y="794" class="ui" font-size="12" font-weight="800" fill="#9a6208" text-anchor="middle">Alerta</text>
  <text x="1076" y="832" class="ui" font-size="11" fill="#8a98ab">Tela demonstrativa baseada no código do repositório - dados fictícios</text>
</svg>