<svg xmlns="http://www.w3.org/2000/svg" width="1280" height="720" viewBox="0 0 1280 720" role="img" aria-labelledby="title desc">
  <title id="title">Gama - dashboard guide</title>
  <desc id="desc">Demo guide image for scheduling dashboard indicators.</desc>
  <rect width="1280" height="720" fill="#f8fafc"/>
  <rect x="56" y="44" width="1168" height="632" rx="24" fill="#fff" stroke="#dbe4f0"/>
  <text x="94" y="100" font-family="Inter,Arial,sans-serif" font-size="31" font-weight="700" fill="#0f172a">Dashboard e indicadores</text>
  <text x="94" y="128" font-family="Inter,Arial,sans-serif" font-size="15" fill="#64748b">Imagem demonstrativa - indicadores ficticios</text>
  <rect x="94" y="166" width="245" height="112" rx="16" fill="#ecfdf5" stroke="#a7f3d0"/>
  <text x="124" y="208" font-family="Inter,Arial,sans-serif" font-size="16" fill="#047857">Ocupacao</text>
  <text x="124" y="250" font-family="Inter,Arial,sans-serif" font-size="38" font-weight="700" fill="#064e3b">74%</text>
  <rect x="369" y="166" width="245" height="112" rx="16" fill="#eff6ff" stroke="#bfdbfe"/>
  <text x="399" y="208" font-family="Inter,Arial,sans-serif" font-size="16" fill="#1d4ed8">Agendamentos</text>
  <text x="399" y="250" font-family="Inter,Arial,sans-serif" font-size="38" font-weight="700" fill="#1e3a8a">42</text>
  <rect x="644" y="166" width="245" height="112" rx="16" fill="#fff7ed" stroke="#fed7aa"/>
  <text x="674" y="208" font-family="Inter,Arial,sans-serif" font-size="16" fill="#c2410c">Conflitos</text>
  <text x="674" y="250" font-family="Inter,Arial,sans-serif" font-size="38" font-weight="700" fill="#7c2d12">03</text>
  <rect x="94" y="326" width="520" height="250" rx="18" fill="#fff" stroke="#dbe4f0"/>
  <text x="128" y="372" font-family="Inter,Arial,sans-serif" font-size="20" font-weight="700" fill="#0f172a">Uso por turno</text>
  <rect x="138" y="514" width="88" height="34" rx="6" fill="#60a5fa"/>
  <rect x="266" y="464" width="88" height="84" rx="6" fill="#2563eb"/>
  <rect x="394" y="424" width="88" height="124" rx="6" fill="#1d4ed8"/>
  <rect x="644" y="326" width="430" height="250" rx="18" fill="#fff" stroke="#dbe4f0"/>
  <text x="678" y="372" font-family="Inter,Arial,sans-serif" font-size="20" font-weight="700" fill="#0f172a">Produtividade</text>
  <polyline points="690,520 760,482 830,498 900,430 1000,390" fill="none" stroke="#0f4c81" stroke-width="6" stroke-linecap="round"/>
</svg>
