<svg xmlns="http://www.w3.org/2000/svg" width="1440" height="900" viewBox="0 0 1440 900" role="img">
  <title>Gama - gestão</title>
  <desc>Gestão de cadastros e logs Dados fictícios, sem informação real de pacientes, profissionais ou instituição.</desc>
  <defs>
    <filter id="shadow" x="-15%" y="-15%" width="130%" height="130%"><feDropShadow dx="0" dy="18" stdDeviation="18" flood-color="#0f172a" flood-opacity=".13"/></filter>
    <style>.ui{font-family:Inter,Segoe UI,Arial,sans-serif;letter-spacing:0}</style>
  </defs>
  <rect width="1440" height="900" fill="#f6f8fc"/>
  <rect x="34" y="28" width="1372" height="824" rx="26" fill="#ffffff" filter="url(#shadow)"/>
  <rect x="34" y="28" width="1372" height="48" rx="26" fill="#f8fafc"/>
  <circle cx="72" cy="52" r="7" fill="#ef4444"/><circle cx="96" cy="52" r="7" fill="#f59e0b"/><circle cx="120" cy="52" r="7" fill="#22c55e"/>
  <rect x="174" y="42" width="412" height="20" rx="10" fill="#e2e8f0"/>
  <text x="80" y="120" class="ui" font-size="28" font-weight="850" fill="#101b2c">Gestão e cadastros</text><text x="80" y="147" class="ui" font-size="13" font-weight="600" fill="#65758b">Cadastros, ilhas, salas, médicos e auditoria</text><rect x="80" y="162" width="56" height="4" rx="3" fill="#2563eb" stroke="#2563eb"/><rect x="80" y="216" width="470" height="136" rx="14" fill="#ffffff" stroke="#dce5ef"/><rect x="80" y="216" width="5" height="136" rx="5" fill="#2563eb" stroke="#2563eb"/><text x="102" y="248" class="ui" font-size="17" font-weight="850" fill="#142033">gestao-cadastros</text><text x="102" y="272" class="ui" font-size="12" font-weight="600" fill="#66758a">Gerencie cadastros, ilhas e salas</text><rect x="590" y="216" width="470" height="136" rx="14" fill="#ffffff" stroke="#dce5ef"/><rect x="590" y="216" width="5" height="136" rx="5" fill="#2563eb" stroke="#2563eb"/><text x="612" y="248" class="ui" font-size="17" font-weight="850" fill="#142033">medicos</text><text x="612" y="272" class="ui" font-size="12" font-weight="600" fill="#66758a">Produtividade e atrasos dos profissionais</text><rect x="80" y="392" width="470" height="136" rx="14" fill="#ffffff" stroke="#dce5ef"/><rect x="80" y="392" width="5" height="136" rx="5" fill="#2563eb" stroke="#2563eb"/><text x="102" y="424" class="ui" font-size="17" font-weight="850" fill="#142033">logs</text><text x="102" y="448" class="ui" font-size="12" font-weight="600" fill="#66758a">Audite atividades e ações administrativas</text><rect x="590" y="392" width="470" height="136" rx="14" fill="#ffffff" stroke="#dce5ef"/><rect x="590" y="392" width="5" height="136" rx="5" fill="#2563eb" stroke="#2563eb"/><text x="612" y="424" class="ui" font-size="17" font-weight="850" fill="#142033">sala-mes</text><text x="612" y="448" class="ui" font-size="12" font-weight="600" fill="#66758a">Performance mensal das salas</text><rect x="80" y="596" width="1000" height="188" rx="12" fill="#ffffff" stroke="#dce5ef"/><text x="98" y="626" class="ui" font-size="16" font-weight="800" fill="#142033">Logs administrativos</text><rect x="96" y="640" width="968" height="34" rx="8" fill="#f2f6fa" stroke="#f2f6fa"/><text x="108" y="662" class="ui" font-size="11" font-weight="800" fill="#617187">Cadastro</text><text x="345" y="662" class="ui" font-size="11" font-weight="800" fill="#617187">Chave</text><text x="582" y="662" class="ui" font-size="11" font-weight="800" fill="#617187">Alteração</text><text x="819" y="662" class="ui" font-size="11" font-weight="800" fill="#617187">Status</text><line x1="98" y1="676" x2="1062" y2="676" stroke="#e7edf4" stroke-width="1" stroke-linecap="round"/><text x="108" y="698" class="ui" font-size="12" font-weight="600" fill="#2b3b4f">Sala</text><text x="345" y="698" class="ui" font-size="12" font-weight="600" fill="#2b3b4f">SALA_02</text><text x="582" y="698" class="ui" font-size="12" font-weight="600" fill="#2b3b4f">Atualizada</text><rect x="819" y="678" width="112" height="26" rx="13" fill="#e6f7ef" stroke="#e6f7ef"/><text x="875" y="696" class="ui" font-size="12" font-weight="800" fill="#13704c" text-anchor="middle">OK</text><line x1="98" y1="718" x2="1062" y2="718" stroke="#e7edf4" stroke-width="1" stroke-linecap="round"/><text x="108" y="740" class="ui" font-size="12" font-weight="600" fill="#2b3b4f">Médico</text><text x="345" y="740" class="ui" font-size="12" font-weight="600" fill="#2b3b4f">CRM 000</text><text x="582" y="740" class="ui" font-size="12" font-weight="600" fill="#2b3b4f">Ativo</text><rect x="819" y="720" width="112" height="26" rx="13" fill="#e6f7ef" stroke="#e6f7ef"/><text x="875" y="738" class="ui" font-size="12" font-weight="800" fill="#13704c" text-anchor="middle">OK</text><line x1="98" y1="760" x2="1062" y2="760" stroke="#e7edf4" stroke-width="1" stroke-linecap="round"/><text x="108" y="782" class="ui" font-size="12" font-weight="600" fill="#2b3b4f">Ilha</text><text x="345" y="782" class="ui" font-size="12" font-weight="600" fill="#2b3b4f">Centro</text><text x="582" y="782" class="ui" font-size="12" font-weight="600" fill="#2b3b4f">Nova</text><rect x="819" y="762" width="112" height="26" rx="13" fill="#fff6df" stroke="#fff6df"/><text x="875" y="780" class="ui" font-size="12" font-weight="800" fill="#9a6208" text-anchor="middle">Revisar</text><rect x="1112" y="596" width="176" height="40" rx="10" fill="#2563eb" stroke="#2563eb"/><text x="1200" y="621" class="ui" font-size="13" font-weight="800" fill="#ffffff" text-anchor="middle">Novo cadastro</text><rect x="1112" y="650" width="176" height="40" rx="10" fill="#f6f8fc" stroke="#f6f8fc"/><text x="1200" y="675" class="ui" font-size="13" font-weight="800" fill="#22334f" text-anchor="middle">Exportar relatório</text>
  <text x="1076" y="832" class="ui" font-size="11" fill="#8a98ab">Tela demonstrativa baseada no código do repositório - dados fictícios</text>
</svg>