<svg xmlns="http://www.w3.org/2000/svg" width="1440" height="900" viewBox="0 0 1440 900" role="img">
  <title>Gama - login</title>
  <desc>Tela de login real do sistema Gama Dados fictícios, sem informação real de pacientes, profissionais ou instituição.</desc>
  <defs>
    <filter id="shadow" x="-15%" y="-15%" width="130%" height="130%"><feDropShadow dx="0" dy="18" stdDeviation="18" flood-color="#0f172a" flood-opacity=".13"/></filter>
    <style>.ui{font-family:Inter,Segoe UI,Arial,sans-serif;letter-spacing:0}</style>
  </defs>
  <rect width="1440" height="900" fill="#0b1220"/>
  <rect x="34" y="28" width="1372" height="824" rx="26" fill="#ffffff" filter="url(#shadow)"/>
  <rect x="34" y="28" width="1372" height="48" rx="26" fill="#f8fafc"/>
  <circle cx="72" cy="52" r="7" fill="#ef4444"/><circle cx="96" cy="52" r="7" fill="#f59e0b"/><circle cx="120" cy="52" r="7" fill="#22c55e"/>
  <rect x="174" y="42" width="412" height="20" rx="10" fill="#e2e8f0"/>
  <rect x="0" y="76" width="1440" height="824" rx="0" fill="#0b1220" stroke="#0b1220"/><rect x="506" y="164" width="428" height="522" rx="24" fill="#111a2b" stroke="#22334f"/><circle cx="720" cy="230" r="44" fill="#2563eb" stroke="none" stroke-width="1"/><text x="720" y="294" class="ui" font-size="24" font-weight="850" fill="#f8fafc" text-anchor="middle">Hospital de Referência</text><text x="720" y="322" class="ui" font-size="13" font-weight="600" fill="#9aa6bf" text-anchor="middle">Acesso ao sistema Gama</text><text x="572" y="374" class="ui" font-size="11" font-weight="800" fill="#66758a">Informe sua matrícula</text><rect x="572" y="382" width="296" height="48" rx="9" fill="#162237" stroke="#d8e1ed"/><text x="586" y="412" class="ui" font-size="13" font-weight="600" fill="#26364a">000000</text><text x="572" y="454" class="ui" font-size="11" font-weight="800" fill="#66758a">Digite sua senha</text><rect x="572" y="462" width="296" height="48" rx="9" fill="#162237" stroke="#d8e1ed"/><text x="586" y="492" class="ui" font-size="13" font-weight="600" fill="#26364a">••••••••</text><rect x="572" y="548" width="296" height="48" rx="10" fill="#2563eb" stroke="#2563eb"/><text x="720" y="577" class="ui" font-size="13" font-weight="800" fill="#ffffff" text-anchor="middle">Entrar</text><text x="720" y="626" class="ui" font-size="12" font-weight="600" fill="#9aa6bf" text-anchor="middle">btn-forgot · login-alert · login-button-label</text>
  <text x="1076" y="832" class="ui" font-size="11" fill="#8a98ab">Tela demonstrativa baseada no código do repositório - dados fictícios</text>
</svg>