<svg xmlns="http://www.w3.org/2000/svg" width="1440" height="900" viewBox="0 0 1440 900" role="img">
  <title>Gama - monitor</title>
  <desc>Monitor, navegação e controles de turno/data Dados fictícios, sem informação real de pacientes, profissionais ou instituição.</desc>
  <defs>
    <filter id="shadow" x="-15%" y="-15%" width="130%" height="130%"><feDropShadow dx="0" dy="18" stdDeviation="18" flood-color="#0f172a" flood-opacity=".13"/></filter>
    <style>.ui{font-family:Inter,Segoe UI,Arial,sans-serif;letter-spacing:0}</style>
  </defs>
  <rect width="1440" height="900" fill="#f6f8fc"/>
  <rect x="34" y="28" width="1372" height="824" rx="26" fill="#ffffff" filter="url(#shadow)"/>
  <rect x="34" y="28" width="1372" height="48" rx="26" fill="#f8fafc"/>
  <circle cx="72" cy="52" r="7" fill="#ef4444"/><circle cx="96" cy="52" r="7" fill="#f59e0b"/><circle cx="120" cy="52" r="7" fill="#22c55e"/>
  <rect x="174" y="42" width="412" height="20" rx="10" fill="#e2e8f0"/>
  <rect x="60" y="102" width="1320" height="68" rx="16" fill="#ffffff" stroke="#dbe4f3"/><text x="92" y="144" class="ui" font-size="22" font-weight="850" fill="#0b1220">Logo Gama</text><rect x="276" y="120" width="120" height="32" rx="16" fill="#f6f8fc" stroke="#f6f8fc"/><text x="336" y="141" class="ui" font-size="12" font-weight="800" fill="#22334f" text-anchor="middle">Operação</text><rect x="414" y="120" width="120" height="32" rx="16" fill="#2563eb" stroke="#2563eb"/><text x="474" y="141" class="ui" font-size="12" font-weight="800" fill="#ffffff" text-anchor="middle">Monitor</text><rect x="552" y="120" width="120" height="32" rx="16" fill="#f6f8fc" stroke="#f6f8fc"/><text x="612" y="141" class="ui" font-size="12" font-weight="800" fill="#22334f" text-anchor="middle">Planejamento</text><rect x="690" y="120" width="120" height="32" rx="16" fill="#f6f8fc" stroke="#f6f8fc"/><text x="750" y="141" class="ui" font-size="12" font-weight="800" fill="#22334f" text-anchor="middle">Análise</text><rect x="828" y="120" width="120" height="32" rx="16" fill="#f6f8fc" stroke="#f6f8fc"/><text x="888" y="141" class="ui" font-size="12" font-weight="800" fill="#22334f" text-anchor="middle">Gestão</text><rect x="966" y="120" width="120" height="32" rx="16" fill="#f6f8fc" stroke="#f6f8fc"/><text x="1026" y="141" class="ui" font-size="12" font-weight="800" fill="#22334f" text-anchor="middle">Logs</text><rect x="1122" y="118" width="96" height="36" rx="10" fill="#f6f8fc" stroke="#dbe4f3"/><text x="1170" y="141" class="ui" font-size="12" font-weight="800" fill="#22334f" text-anchor="middle">Manhã</text><rect x="1228" y="118" width="108" height="36" rx="10" fill="#f6f8fc" stroke="#dbe4f3"/><text x="1282" y="141" class="ui" font-size="12" font-weight="800" fill="#22334f" text-anchor="middle">21/06</text><text x="82" y="214" class="ui" font-size="28" font-weight="850" fill="#101b2c">Monitor de salas</text><text x="82" y="241" class="ui" font-size="13" font-weight="600" fill="#65758b">Acompanhe em tempo real a ocupação das salas</text><rect x="82" y="256" width="56" height="4" rx="3" fill="#2563eb" stroke="#2563eb"/><rect x="82" y="304" width="188" height="150" rx="16" fill="#ffffff" stroke="#dbe4f3"/><text x="100" y="342" class="ui" font-size="22" font-weight="850" fill="#0b1220">Sala 01</text><rect x="100" y="364" width="116" height="28" rx="14" fill="#22c55e" stroke="#22c55e"/><text x="158" y="383" class="ui" font-size="12" font-weight="800" fill="#ffffff" text-anchor="middle">Livre</text><text x="100" y="416" class="ui" font-size="12" font-weight="600" fill="#66758a">turno · médico · ilha</text><rect x="290" y="304" width="188" height="150" rx="16" fill="#ffffff" stroke="#dbe4f3"/><text x="308" y="342" class="ui" font-size="22" font-weight="850" fill="#0b1220">Sala 02</text><rect x="308" y="364" width="116" height="28" rx="14" fill="#2563eb" stroke="#2563eb"/><text x="366" y="383" class="ui" font-size="12" font-weight="800" fill="#ffffff" text-anchor="middle">Ocupada</text><text x="308" y="416" class="ui" font-size="12" font-weight="600" fill="#66758a">turno · médico · ilha</text><rect x="498" y="304" width="188" height="150" rx="16" fill="#ffffff" stroke="#dbe4f3"/><text x="516" y="342" class="ui" font-size="22" font-weight="850" fill="#0b1220">Sala 03</text><rect x="516" y="364" width="116" height="28" rx="14" fill="#f59e0b" stroke="#f59e0b"/><text x="574" y="383" class="ui" font-size="12" font-weight="800" fill="#ffffff" text-anchor="middle">Reservada</text><text x="516" y="416" class="ui" font-size="12" font-weight="600" fill="#66758a">turno · médico · ilha</text><rect x="82" y="480" width="188" height="150" rx="16" fill="#ffffff" stroke="#dbe4f3"/><text x="100" y="518" class="ui" font-size="22" font-weight="850" fill="#0b1220">Sala 04</text><rect x="100" y="540" width="116" height="28" rx="14" fill="#ef4444" stroke="#ef4444"/><text x="158" y="559" class="ui" font-size="12" font-weight="800" fill="#ffffff" text-anchor="middle">Conflito</text><text x="100" y="592" class="ui" font-size="12" font-weight="600" fill="#66758a">turno · médico · ilha</text><rect x="290" y="480" width="188" height="150" rx="16" fill="#ffffff" stroke="#dbe4f3"/><text x="308" y="518" class="ui" font-size="22" font-weight="850" fill="#0b1220">Sala 05</text><rect x="308" y="540" width="116" height="28" rx="14" fill="#22c55e" stroke="#22c55e"/><text x="366" y="559" class="ui" font-size="12" font-weight="800" fill="#ffffff" text-anchor="middle">Livre</text><text x="308" y="592" class="ui" font-size="12" font-weight="600" fill="#66758a">turno · médico · ilha</text><rect x="498" y="480" width="188" height="150" rx="16" fill="#ffffff" stroke="#dbe4f3"/><text x="516" y="518" class="ui" font-size="22" font-weight="850" fill="#0b1220">Sala 06</text><rect x="516" y="540" width="116" height="28" rx="14" fill="#0ea5e9" stroke="#0ea5e9"/><text x="574" y="559" class="ui" font-size="12" font-weight="800" fill="#ffffff" text-anchor="middle">Limpeza</text><text x="516" y="592" class="ui" font-size="12" font-weight="600" fill="#66758a">turno · médico · ilha</text><rect x="742" y="480" width="594" height="188" rx="12" fill="#ffffff" stroke="#dce5ef"/><text x="760" y="510" class="ui" font-size="16" font-weight="800" fill="#142033">Planejamento por turno</text><rect x="758" y="524" width="562" height="34" rx="8" fill="#f2f6fa" stroke="#f2f6fa"/><text x="770" y="546" class="ui" font-size="11" font-weight="800" fill="#617187">Horário</text><text x="905" y="546" class="ui" font-size="11" font-weight="800" fill="#617187">Sala</text><text x="1040" y="546" class="ui" font-size="11" font-weight="800" fill="#617187">Especialidade</text><text x="1175" y="546" class="ui" font-size="11" font-weight="800" fill="#617187">Status</text><line x1="760" y1="560" x2="1318" y2="560" stroke="#e7edf4" stroke-width="1" stroke-linecap="round"/><text x="770" y="582" class="ui" font-size="12" font-weight="600" fill="#2b3b4f">08:00</text><text x="905" y="582" class="ui" font-size="12" font-weight="600" fill="#2b3b4f">Sala 01</text><text x="1040" y="582" class="ui" font-size="12" font-weight="600" fill="#2b3b4f">Clínica</text><rect x="1175" y="562" width="112" height="26" rx="13" fill="#e6f7ef" stroke="#e6f7ef"/><text x="1231" y="580" class="ui" font-size="12" font-weight="800" fill="#13704c" text-anchor="middle">Livre</text><line x1="760" y1="602" x2="1318" y2="602" stroke="#e7edf4" stroke-width="1" stroke-linecap="round"/><text x="770" y="624" class="ui" font-size="12" font-weight="600" fill="#2b3b4f">09:30</text><text x="905" y="624" class="ui" font-size="12" font-weight="600" fill="#2b3b4f">Sala 02</text><text x="1040" y="624" class="ui" font-size="12" font-weight="600" fill="#2b3b4f">Cirurgia</text><rect x="1175" y="604" width="112" height="26" rx="13" fill="#e6f7ef" stroke="#e6f7ef"/><text x="1231" y="622" class="ui" font-size="12" font-weight="800" fill="#13704c" text-anchor="middle">Ocupada</text><line x1="760" y1="644" x2="1318" y2="644" stroke="#e7edf4" stroke-width="1" stroke-linecap="round"/><text x="770" y="666" class="ui" font-size="12" font-weight="600" fill="#2b3b4f">11:00</text><text x="905" y="666" class="ui" font-size="12" font-weight="600" fill="#2b3b4f">Sala 04</text><text x="1040" y="666" class="ui" font-size="12" font-weight="600" fill="#2b3b4f">Imagem</text><rect x="1175" y="646" width="112" height="26" rx="13" fill="#e6f7ef" stroke="#e6f7ef"/><text x="1231" y="664" class="ui" font-size="12" font-weight="800" fill="#13704c" text-anchor="middle">Conflito</text>
  <text x="1076" y="832" class="ui" font-size="11" fill="#8a98ab">Tela demonstrativa baseada no código do repositório - dados fictícios</text>
</svg>